<svg xmlns="http://www.w3.org/2000/svg" width="1024" height="1024" viewBox="0 0 1024 1024">
  <defs>
    <linearGradient id="bg" gradientUnits="userSpaceOnUse" x1="512" y1="48" x2="512" y2="976">
      <stop offset="0" stop-color="#1f6b8c"/>
      <stop offset="1" stop-color="#0a2130"/>
    </linearGradient>
    <radialGradient id="halo" gradientUnits="userSpaceOnUse" cx="512" cy="430" r="440">
      <stop offset="0" stop-color="#2f89ae" stop-opacity="0.5"/>
      <stop offset="1" stop-color="#2f89ae" stop-opacity="0"/>
    </radialGradient>
    <linearGradient id="vignette" gradientUnits="userSpaceOnUse" x1="512" y1="600" x2="512" y2="976">
      <stop offset="0" stop-color="#06121c" stop-opacity="0"/>
      <stop offset="1" stop-color="#06121c" stop-opacity="0.5"/>
    </linearGradient>
    <linearGradient id="brass" gradientUnits="userSpaceOnUse" x1="512" y1="150" x2="512" y2="830">
      <stop offset="0" stop-color="#ffe0a0"/>
      <stop offset="0.5" stop-color="#ecb75f"/>
      <stop offset="1" stop-color="#cf9236"/>
    </linearGradient>
    <linearGradient id="sheen" gradientUnits="userSpaceOnUse" x1="512" y1="48" x2="512" y2="420">
      <stop offset="0" stop-color="#ffffff" stop-opacity="0.13"/>
      <stop offset="1" stop-color="#ffffff" stop-opacity="0"/>
    </linearGradient>
    <clipPath id="squircle">
      <rect x="48" y="48" width="928" height="928" rx="208"/>
    </clipPath>
  </defs>
  <rect x="48" y="48" width="928" height="928" rx="208" fill="url(#bg)"/>
  <g clip-path="url(#squircle)">
    <rect x="48" y="48" width="928" height="928" fill="url(#halo)"/>
    <g fill="none" stroke="#3c2a08" stroke-opacity="0.5" stroke-width="76" stroke-linecap="round" stroke-linejoin="round"
       transform="translate(512 514) scale(0.96) translate(-512 -500)">
      <circle cx="512" cy="210" r="84" stroke-width="48"/>
      <line x1="512" y1="296" x2="512" y2="806"/>
      <line x1="326" y1="382" x2="698" y2="382" stroke-width="62"/>
      <path d="M 184 586 Q 206 800 512 820 Q 818 800 840 586"/>
      <path d="M 184 586 L 142 492 M 184 586 L 262 520"/>
      <path d="M 840 586 L 882 492 M 840 586 L 762 520"/>
    </g>
    <g fill="none" stroke="url(#brass)" stroke-width="76" stroke-linecap="round" stroke-linejoin="round"
       transform="translate(512 500) scale(0.96) translate(-512 -500)">
      <circle cx="512" cy="210" r="84" stroke-width="48"/>
      <line x1="512" y1="296" x2="512" y2="806"/>
      <line x1="326" y1="382" x2="698" y2="382" stroke-width="62"/>
      <path d="M 184 586 Q 206 800 512 820 Q 818 800 840 586"/>
      <path d="M 184 586 L 142 492 M 184 586 L 262 520"/>
      <path d="M 840 586 L 882 492 M 840 586 L 762 520"/>
    </g>
    <g fill="none" stroke="#fff3d0" stroke-opacity="0.32" stroke-width="30" stroke-linecap="round" stroke-linejoin="round"
       transform="translate(512 494) scale(0.96) translate(-512 -500)">
      <circle cx="512" cy="210" r="84" stroke-width="18"/>
      <line x1="512" y1="306" x2="512" y2="796"/>
      <line x1="336" y1="382" x2="688" y2="382" stroke-width="24"/>
      <path d="M 194 590 Q 214 792 512 812 Q 810 792 830 590"/>
    </g>
    <rect x="48" y="48" width="928" height="928" fill="url(#vignette)"/>
    <path d="M 48 48 H 976 V 300 Q 512 420 48 300 Z" fill="url(#sheen)"/>
  </g>
</svg>
